<svg xmlns="http://www.w3.org/2000/svg" width="536.528" height="189.83" viewBox="0 0 536.528 189.83">
  <g id="Group_4" data-name="Group 4" transform="translate(-63.308 -262.76)">
    <g id="Group_61" data-name="Group 61" transform="translate(264.072 341.879)">
      <path id="Path_23" data-name="Path 23" d="M228.269,345.308a11.761,11.761,0,0,1-4.3-.765,10.123,10.123,0,0,1-5.686-5.469,11.1,11.1,0,0,1,0-8.312,10.038,10.038,0,0,1,2.281-3.29A10.321,10.321,0,0,1,224,325.293a12.492,12.492,0,0,1,8.832.087,8.979,8.979,0,0,1,3.464,2.527l-2.424,2.28a7.652,7.652,0,0,0-2.482-1.776,7.226,7.226,0,0,0-2.915-.591,7.813,7.813,0,0,0-2.9.518,6.73,6.73,0,0,0-2.28,1.473,6.888,6.888,0,0,0-1.516,2.251,7.714,7.714,0,0,0,0,5.715,6.9,6.9,0,0,0,1.516,2.251,6.728,6.728,0,0,0,2.28,1.471,7.813,7.813,0,0,0,2.9.52,7.2,7.2,0,0,0,2.915-.592,7.442,7.442,0,0,0,2.482-1.8l2.424,2.28a9.091,9.091,0,0,1-3.464,2.54A11.6,11.6,0,0,1,228.269,345.308Z" transform="translate(-216.06 -322.739)" fill="#fff"/>
      <path id="Path_24" data-name="Path 24" d="M239.094,344.061a7.243,7.243,0,0,1-3.031-.592,4.68,4.68,0,0,1-2.006-1.645,4.177,4.177,0,0,1-.707-2.381,4.47,4.47,0,0,1,.621-2.338,4.183,4.183,0,0,1,2.036-1.646,9.678,9.678,0,0,1,3.751-.606h4.473v2.4h-4.213a3.765,3.765,0,0,0-2.468.592,1.927,1.927,0,0,0-.65,1.487,1.812,1.812,0,0,0,.78,1.529,3.57,3.57,0,0,0,2.164.578,4.686,4.686,0,0,0,2.381-.606,3.584,3.584,0,0,0,1.545-1.789l.576,2.164a4.024,4.024,0,0,1-1.847,2.107A6.871,6.871,0,0,1,239.094,344.061Zm4.848-.2v-3.146l-.172-.634v-5.456a3.166,3.166,0,0,0-.967-2.466,4.228,4.228,0,0,0-2.929-.881,8.071,8.071,0,0,0-2.511.4,6.624,6.624,0,0,0-2.135,1.125l-1.415-2.626a9.088,9.088,0,0,1,2.973-1.442,12.767,12.767,0,0,1,3.55-.491,7.563,7.563,0,0,1,5.195,1.617,6.3,6.3,0,0,1,1.818,4.963v9.034Z" transform="translate(-211.099 -321.578)" fill="#fff"/>
      <path id="Path_25" data-name="Path 25" d="M245.973,332.212v-2.886h10.274v2.886Zm7.85,12.612a5.481,5.481,0,0,1-3.926-1.314,5.063,5.063,0,0,1-1.385-3.852V325.8h3.579v13.738a2.369,2.369,0,0,0,.576,1.7,2.126,2.126,0,0,0,1.617.606,3,3,0,0,0,1.962-.635l1.04,2.569a4.548,4.548,0,0,1-1.588.78A6.9,6.9,0,0,1,253.823,344.824Z" transform="translate(-207.154 -322.34)" fill="#fff"/>
      <path id="Path_26" data-name="Path 26" d="M261.764,345.456a7.237,7.237,0,0,1-3.029-.592,4.664,4.664,0,0,1-2.005-1.645,4.168,4.168,0,0,1-.709-2.381,4.458,4.458,0,0,1,.622-2.338,4.178,4.178,0,0,1,2.034-1.646,9.687,9.687,0,0,1,3.751-.606H266.9v2.4h-4.214a3.77,3.77,0,0,0-2.467.592,1.925,1.925,0,0,0-.648,1.487,1.811,1.811,0,0,0,.778,1.529,3.575,3.575,0,0,0,2.164.577,4.684,4.684,0,0,0,2.381-.606,3.584,3.584,0,0,0,1.545-1.789l.576,2.164a4.011,4.011,0,0,1-1.847,2.107A6.867,6.867,0,0,1,261.764,345.456Zm4.85-.2v-3.146l-.173-.634v-5.456a3.166,3.166,0,0,0-.967-2.466,4.226,4.226,0,0,0-2.929-.881,8.073,8.073,0,0,0-2.511.4A6.64,6.64,0,0,0,257.9,334.2l-1.414-2.626a9.077,9.077,0,0,1,2.973-1.442,12.758,12.758,0,0,1,3.549-.491,7.562,7.562,0,0,1,5.195,1.617,6.3,6.3,0,0,1,1.819,4.963v9.034ZM260.9,327.734l3.9-3.953h4.271l-5.051,3.953Z" transform="translate(-204.014 -322.972)" fill="#fff"/>
      <path id="Path_27" data-name="Path 27" d="M270.227,345.24V323.825h3.579V345.24Z" transform="translate(-199.575 -322.959)" fill="#fff"/>
      <path id="Path_28" data-name="Path 28" d="M283.789,344.061a8.562,8.562,0,0,1-4.2-1.024,7.625,7.625,0,0,1-2.93-2.814,7.84,7.84,0,0,1,2.914-10.954,8.549,8.549,0,0,1,4.214-1.024,8.684,8.684,0,0,1,4.256,1.024,7.592,7.592,0,0,1,2.915,2.785,8.467,8.467,0,0,1,0,8.182,7.531,7.531,0,0,1-2.929,2.8A8.71,8.71,0,0,1,283.789,344.061Zm0-3.06a4.694,4.694,0,0,0,2.366-.592,4.14,4.14,0,0,0,1.63-1.7,5.342,5.342,0,0,0,.592-2.554,5.237,5.237,0,0,0-.592-2.554,4.2,4.2,0,0,0-1.63-1.675,4.921,4.921,0,0,0-4.675,0,4.305,4.305,0,0,0-1.646,1.675,5.155,5.155,0,0,0-.605,2.554,5.258,5.258,0,0,0,.605,2.554,4.242,4.242,0,0,0,1.646,1.7A4.571,4.571,0,0,0,283.789,341Z" transform="translate(-197.899 -321.578)" fill="#fff"/>
      <path id="Path_29" data-name="Path 29" d="M297.566,343.166a8.343,8.343,0,0,1-3.982-.937,7.144,7.144,0,0,1-2.785-2.612,7.319,7.319,0,0,1-1.025-3.9,7.454,7.454,0,0,1,1.025-3.94,7,7,0,0,1,2.785-2.611,8.429,8.429,0,0,1,3.982-.924,7.741,7.741,0,0,1,3.536.794,5.869,5.869,0,0,1,2.5,2.437,8.631,8.631,0,0,1,.923,4.243,8.487,8.487,0,0,1-.923,4.184,5.964,5.964,0,0,1-2.5,2.454A7.632,7.632,0,0,1,297.566,343.166Zm.462,6.494a15.358,15.358,0,0,1-4.17-.563,8.972,8.972,0,0,1-3.334-1.659l1.617-2.684a7.933,7.933,0,0,0,2.54,1.356,9.8,9.8,0,0,0,3.175.52,5.078,5.078,0,0,0,3.693-1.17,4.766,4.766,0,0,0,1.184-3.535v-2.742l.289-3.464-.116-3.493v-3.78h3.434v13.074q0,4.184-2.135,6.162A8.775,8.775,0,0,1,298.028,349.66Zm.087-9.552a5.11,5.11,0,0,0,2.426-.564,4.114,4.114,0,0,0,1.659-1.558,4.714,4.714,0,0,0,0-4.574,4.056,4.056,0,0,0-1.659-1.529,5.231,5.231,0,0,0-2.426-.549,5.314,5.314,0,0,0-2.439.549A4.03,4.03,0,0,0,294,333.411a4.714,4.714,0,0,0,0,4.574,4.087,4.087,0,0,0,1.673,1.558A5.19,5.19,0,0,0,298.115,340.107Z" transform="translate(-193.467 -321.578)" fill="#fff"/>
      <path id="Path_30" data-name="Path 30" d="M313.23,344.061a8.57,8.57,0,0,1-4.2-1.024,7.63,7.63,0,0,1-2.928-2.814,7.84,7.84,0,0,1,2.914-10.954,8.543,8.543,0,0,1,4.213-1.024,8.689,8.689,0,0,1,4.258,1.024,7.593,7.593,0,0,1,2.915,2.785,8.467,8.467,0,0,1,0,8.182,7.532,7.532,0,0,1-2.93,2.8A8.71,8.71,0,0,1,313.23,344.061Zm0-3.06a4.7,4.7,0,0,0,2.368-.592,4.156,4.156,0,0,0,1.63-1.7,5.342,5.342,0,0,0,.592-2.554,5.238,5.238,0,0,0-.592-2.554,4.216,4.216,0,0,0-1.63-1.675,4.921,4.921,0,0,0-4.675,0,4.294,4.294,0,0,0-1.645,1.675,5.129,5.129,0,0,0-.606,2.554,5.23,5.23,0,0,0,.606,2.554,4.231,4.231,0,0,0,1.645,1.7A4.577,4.577,0,0,0,313.23,341Z" transform="translate(-188.698 -321.578)" fill="#fff"/>
      <path id="Path_31" data-name="Path 31" d="M333.079,345.442a8.108,8.108,0,0,1-4-.982A7.075,7.075,0,0,1,326.3,341.7a9.081,9.081,0,0,1,0-8.326,7.057,7.057,0,0,1,2.785-2.769,8.108,8.108,0,0,1,4-.982,6.99,6.99,0,0,1,3.462.852,6,6,0,0,1,2.425,2.6,9.76,9.76,0,0,1,.9,4.459,10.026,10.026,0,0,1-.868,4.444,5.835,5.835,0,0,1-2.38,2.612A7.1,7.1,0,0,1,333.079,345.442Zm.433-3.06a4.551,4.551,0,0,0,2.323-.592,4.371,4.371,0,0,0,1.645-1.7,5.138,5.138,0,0,0,.621-2.554,5.037,5.037,0,0,0-.621-2.554,4.44,4.44,0,0,0-1.645-1.675,4.867,4.867,0,0,0-4.648,0,4.45,4.45,0,0,0-1.645,1.675,5.049,5.049,0,0,0-.62,2.554,5.15,5.15,0,0,0,.62,2.554,4.38,4.38,0,0,0,1.645,1.7A4.559,4.559,0,0,0,333.512,342.382Zm4.7,2.857V341.6l.087-4.1-.289-4.1v-9.581h3.637V345.24Z" transform="translate(-182.369 -322.959)" fill="#fff"/>
      <path id="Path_32" data-name="Path 32" d="M348.907,344.061a9.4,9.4,0,0,1-4.487-1.024,7.441,7.441,0,0,1-2.973-2.8,7.832,7.832,0,0,1-1.053-4.083,8.007,8.007,0,0,1,1.024-4.083,7.45,7.45,0,0,1,2.828-2.8,8.181,8.181,0,0,1,4.112-1.024,8.022,8.022,0,0,1,4.012.995,7.225,7.225,0,0,1,2.771,2.785,8.5,8.5,0,0,1,1.009,4.243c0,.134,0,.3-.013.505s-.025.379-.045.533H343.25v-2.4h10.938l-1.443.751a4.522,4.522,0,0,0-.535-2.323,4.027,4.027,0,0,0-1.542-1.588,4.577,4.577,0,0,0-2.31-.562,4.759,4.759,0,0,0-2.323.562,3.833,3.833,0,0,0-1.572,1.6,5.05,5.05,0,0,0-.549,2.4v.577a4.784,4.784,0,0,0,.621,2.453,4.216,4.216,0,0,0,1.775,1.659,5.8,5.8,0,0,0,2.684.592,6.039,6.039,0,0,0,2.339-.433,5.492,5.492,0,0,0,1.847-1.269l1.962,2.251a6.9,6.9,0,0,1-2.641,1.847A9.533,9.533,0,0,1,348.907,344.061Z" transform="translate(-177.648 -321.578)" fill="#fff"/>
      <path id="Path_33" data-name="Path 33" d="M361.37,344.951v-20.2h3.753v20.2Z" transform="translate(-171.093 -322.67)" fill="#fff"/>
      <path id="Path_34" data-name="Path 34" d="M376.858,328.245a7.244,7.244,0,0,1,3.3.721,5.409,5.409,0,0,1,2.28,2.223,7.7,7.7,0,0,1,.852,3.839v8.831h-3.608v-8.37a4.321,4.321,0,0,0-.952-3.058,3.546,3.546,0,0,0-2.713-1.011,4.731,4.731,0,0,0-2.251.52,3.552,3.552,0,0,0-1.516,1.543,5.563,5.563,0,0,0-.534,2.583v7.792h-3.578V328.447h3.433v4.184l-.6-1.3a5.359,5.359,0,0,1,2.322-2.28A7.574,7.574,0,0,1,376.858,328.245Z" transform="translate(-168.976 -321.578)" fill="#fff"/>
      <path id="Path_35" data-name="Path 35" d="M385.117,327.495a2.272,2.272,0,0,1-1.659-.635,2.093,2.093,0,0,1-.648-1.559,2.03,2.03,0,0,1,.648-1.5,2.277,2.277,0,0,1,1.659-.635,2.375,2.375,0,0,1,1.66.592,1.963,1.963,0,0,1,.648,1.515,2.169,2.169,0,0,1-.634,1.574A2.237,2.237,0,0,1,385.117,327.495Zm-1.789,17.951V330.035h3.579v15.411Z" transform="translate(-164.393 -323.165)" fill="#fff"/>
      <path id="Path_36" data-name="Path 36" d="M396.911,344.061a8.91,8.91,0,0,1-4.314-1.024,7.6,7.6,0,0,1-2.958-2.8,8.367,8.367,0,0,1,0-8.182,7.64,7.64,0,0,1,2.958-2.785,8.91,8.91,0,0,1,4.314-1.024,8.253,8.253,0,0,1,3.953.924,5.935,5.935,0,0,1,2.6,2.684l-2.742,1.616a4.617,4.617,0,0,0-1.688-1.6,4.483,4.483,0,0,0-2.15-.533,4.864,4.864,0,0,0-2.4.591,4.235,4.235,0,0,0-1.673,1.675,5.128,5.128,0,0,0-.606,2.554,5.208,5.208,0,0,0,.606,2.569,4.2,4.2,0,0,0,1.673,1.688,4.852,4.852,0,0,0,2.4.592,4.483,4.483,0,0,0,2.15-.533,4.547,4.547,0,0,0,1.688-1.632l2.742,1.616a6.05,6.05,0,0,1-2.6,2.671A8.169,8.169,0,0,1,396.911,344.061Z" transform="translate(-162.593 -321.578)" fill="#fff"/>
      <path id="Path_37" data-name="Path 37" d="M404.139,327.495a2.273,2.273,0,0,1-1.66-.635,2.093,2.093,0,0,1-.648-1.559,2.03,2.03,0,0,1,.648-1.5,2.278,2.278,0,0,1,1.66-.635,2.377,2.377,0,0,1,1.66.592,1.963,1.963,0,0,1,.648,1.515,2.165,2.165,0,0,1-.635,1.574A2.234,2.234,0,0,1,404.139,327.495Zm-1.789,17.951V330.035h3.578v15.411Z" transform="translate(-158.449 -323.165)" fill="#fff"/>
      <path id="Path_38" data-name="Path 38" d="M413.466,344.061a7.245,7.245,0,0,1-3.032-.592,4.68,4.68,0,0,1-2.006-1.645,4.166,4.166,0,0,1-.706-2.381,4.469,4.469,0,0,1,.619-2.338,4.185,4.185,0,0,1,2.034-1.646,9.7,9.7,0,0,1,3.752-.606H418.6v2.4h-4.214a3.767,3.767,0,0,0-2.467.592,1.927,1.927,0,0,0-.65,1.487,1.812,1.812,0,0,0,.78,1.529,3.575,3.575,0,0,0,2.164.578,4.686,4.686,0,0,0,2.381-.606,3.57,3.57,0,0,0,1.544-1.789l.579,2.164a4.025,4.025,0,0,1-1.848,2.107A6.869,6.869,0,0,1,413.466,344.061Zm4.847-.2v-3.146l-.173-.634v-5.456a3.165,3.165,0,0,0-.966-2.466,4.228,4.228,0,0,0-2.93-.881,8.071,8.071,0,0,0-2.511.4A6.632,6.632,0,0,0,409.6,332.8l-1.414-2.626a9.087,9.087,0,0,1,2.973-1.442,12.768,12.768,0,0,1,3.55-.491,7.563,7.563,0,0,1,5.195,1.617,6.3,6.3,0,0,1,1.818,4.963v9.034Z" transform="translate(-156.608 -321.578)" fill="#fff"/>
      <path id="Path_39" data-name="Path 39" d="M420.345,332.212v-2.886h10.274v2.886Zm7.849,12.612a5.477,5.477,0,0,1-3.924-1.314,5.058,5.058,0,0,1-1.386-3.852V325.8h3.579v13.738a2.364,2.364,0,0,0,.577,1.7,2.124,2.124,0,0,0,1.617.606,3.007,3.007,0,0,0,1.962-.635l1.038,2.569a4.53,4.53,0,0,1-1.587.78A6.9,6.9,0,0,1,428.194,344.824Z" transform="translate(-152.663 -322.34)" fill="#fff"/>
      <path id="Path_40" data-name="Path 40" d="M433.164,327.495a2.272,2.272,0,0,1-1.659-.635,2.094,2.094,0,0,1-.65-1.559,2.031,2.031,0,0,1,.65-1.5,2.277,2.277,0,0,1,1.659-.635,2.375,2.375,0,0,1,1.66.592,1.963,1.963,0,0,1,.648,1.515,2.169,2.169,0,0,1-.634,1.574A2.237,2.237,0,0,1,433.164,327.495Zm-1.789,17.951V330.035h3.579v15.411Z" transform="translate(-149.379 -323.165)" fill="#fff"/>
      <path id="Path_41" data-name="Path 41" d="M442.28,343.81,435.67,328.4h3.724l5.713,13.594H443.26l5.888-13.594h3.464L446,343.81Z" transform="translate(-147.874 -321.529)" fill="#fff"/>
      <path id="Path_42" data-name="Path 42" d="M454.828,344.061a7.25,7.25,0,0,1-3.032-.592,4.68,4.68,0,0,1-2.005-1.645,4.175,4.175,0,0,1-.706-2.381,4.458,4.458,0,0,1,.621-2.338,4.181,4.181,0,0,1,2.033-1.646,9.7,9.7,0,0,1,3.754-.606h4.473v2.4H455.75a3.768,3.768,0,0,0-2.468.592,1.927,1.927,0,0,0-.65,1.487,1.812,1.812,0,0,0,.78,1.529,3.575,3.575,0,0,0,2.164.578,4.691,4.691,0,0,0,2.382-.606,3.573,3.573,0,0,0,1.542-1.789l.579,2.164a4.023,4.023,0,0,1-1.847,2.107A6.874,6.874,0,0,1,454.828,344.061Zm4.847-.2v-3.146l-.173-.634v-5.456a3.165,3.165,0,0,0-.966-2.466,4.225,4.225,0,0,0-2.928-.881,8.065,8.065,0,0,0-2.511.4,6.632,6.632,0,0,0-2.137,1.125l-1.414-2.626a9.069,9.069,0,0,1,2.972-1.442,12.773,12.773,0,0,1,3.55-.491,7.563,7.563,0,0,1,5.195,1.617,6.3,6.3,0,0,1,1.818,4.963v9.034Z" transform="translate(-143.682 -321.578)" fill="#fff"/>
      <path id="Path_43" data-name="Path 43" d="M468.477,344.061a13.458,13.458,0,0,1-3.722-.505,10,10,0,0,1-2.828-1.226l1.385-2.742a9.5,9.5,0,0,0,2.482,1.082,10.4,10.4,0,0,0,2.915.419,5.021,5.021,0,0,0,2.439-.448,1.367,1.367,0,0,0,.765-1.226,1.079,1.079,0,0,0-.52-.967,4.066,4.066,0,0,0-1.357-.505c-.557-.116-1.179-.221-1.86-.316s-1.366-.227-2.05-.39a7.066,7.066,0,0,1-1.861-.722,3.846,3.846,0,0,1-1.357-1.285,3.956,3.956,0,0,1-.52-2.164,4.012,4.012,0,0,1,.837-2.525,5.438,5.438,0,0,1,2.352-1.688,9.657,9.657,0,0,1,3.594-.606,14.164,14.164,0,0,1,3.132.361,9.174,9.174,0,0,1,2.67.995l-1.415,2.742a7.328,7.328,0,0,0-2.193-.879,10.386,10.386,0,0,0-2.222-.245,4.876,4.876,0,0,0-2.424.476,1.4,1.4,0,0,0-.809,1.226,1.166,1.166,0,0,0,.52,1.04,3.991,3.991,0,0,0,1.357.533q.835.189,1.861.348t2.034.4a8.111,8.111,0,0,1,1.861.693,3.584,3.584,0,0,1,1.372,1.255,3.844,3.844,0,0,1,.52,2.108,3.893,3.893,0,0,1-.852,2.525,5.537,5.537,0,0,1-2.4,1.645A10.366,10.366,0,0,1,468.477,344.061Z" transform="translate(-139.669 -321.578)" fill="#fff"/>
      <path id="Path_44" data-name="Path 44" d="M216.4,371.338l9.092-20.2h3.695l9.119,20.2h-3.953l-7.792-18.211h1.5l-7.821,18.211Zm4.186-4.675,1.038-2.944H232.5l1.011,2.944Z" transform="translate(-216.397 -314.424)" fill="#fff"/>
      <path id="Path_45" data-name="Path 45" d="M241.5,369.552a8.333,8.333,0,0,1-3.983-.937A7.134,7.134,0,0,1,234.727,366a7.315,7.315,0,0,1-1.024-3.9,7.448,7.448,0,0,1,1.024-3.939,7,7,0,0,1,2.785-2.612,8.451,8.451,0,0,1,3.983-.924,7.737,7.737,0,0,1,3.535.794,5.867,5.867,0,0,1,2.5,2.439,8.612,8.612,0,0,1,.923,4.242,8.478,8.478,0,0,1-.923,4.186,5.954,5.954,0,0,1-2.5,2.453A7.626,7.626,0,0,1,241.5,369.552Zm.462,6.494a15.414,15.414,0,0,1-4.171-.562,8.995,8.995,0,0,1-3.334-1.66l1.617-2.684a7.974,7.974,0,0,0,2.54,1.357,9.837,9.837,0,0,0,3.175.518,5.083,5.083,0,0,0,3.693-1.168,4.772,4.772,0,0,0,1.184-3.536V365.57l.289-3.464-.116-3.492v-3.78h3.435v13.074q0,4.186-2.137,6.162A8.773,8.773,0,0,1,241.957,376.047Zm.087-9.552a5.119,5.119,0,0,0,2.424-.563,4.124,4.124,0,0,0,1.659-1.558,4.716,4.716,0,0,0,0-4.575,4.058,4.058,0,0,0-1.659-1.529,5.225,5.225,0,0,0-2.424-.549,5.312,5.312,0,0,0-2.439.549,4.043,4.043,0,0,0-1.675,1.529,4.725,4.725,0,0,0,0,4.575,4.107,4.107,0,0,0,1.675,1.558A5.2,5.2,0,0,0,242.044,366.494Z" transform="translate(-210.989 -313.331)" fill="#fff"/>
      <path id="Path_46" data-name="Path 46" d="M249.953,370.246V354.834h3.434v4.243l-.4-1.242a4.787,4.787,0,0,1,2.166-2.381,7.528,7.528,0,0,1,3.664-.823v3.435c-.134-.02-.269-.033-.4-.043s-.261-.015-.377-.015a4.5,4.5,0,0,0-3.289,1.183,4.837,4.837,0,0,0-1.213,3.608v7.446Z" transform="translate(-205.911 -313.331)" fill="#fff"/>
      <path id="Path_47" data-name="Path 47" d="M266.176,370.448a8.571,8.571,0,0,1-4.2-1.024,7.634,7.634,0,0,1-2.93-2.814,7.838,7.838,0,0,1,2.915-10.953,8.546,8.546,0,0,1,4.214-1.025,8.693,8.693,0,0,1,4.257,1.025,7.585,7.585,0,0,1,2.915,2.785,8.467,8.467,0,0,1,0,8.182,7.537,7.537,0,0,1-2.93,2.8A8.713,8.713,0,0,1,266.176,370.448Zm0-3.058a4.693,4.693,0,0,0,2.366-.593,4.149,4.149,0,0,0,1.63-1.7,5.355,5.355,0,0,0,.592-2.554,5.257,5.257,0,0,0-.592-2.554,4.2,4.2,0,0,0-1.63-1.673,4.914,4.914,0,0,0-4.676,0,4.308,4.308,0,0,0-1.645,1.673,5.145,5.145,0,0,0-.605,2.554,5.241,5.241,0,0,0,.605,2.554,4.248,4.248,0,0,0,1.645,1.7A4.579,4.579,0,0,0,266.176,367.389Z" transform="translate(-203.403 -313.331)" fill="#fff"/>
      <path id="Path_48" data-name="Path 48" d="M280.675,370.448a9.4,9.4,0,0,1-4.487-1.024,7.472,7.472,0,0,1-2.973-2.8,7.851,7.851,0,0,1-1.053-4.084,8.021,8.021,0,0,1,1.024-4.083,7.45,7.45,0,0,1,2.828-2.8,8.188,8.188,0,0,1,4.113-1.025,8,8,0,0,1,4.011,1,7.2,7.2,0,0,1,2.771,2.785,8.494,8.494,0,0,1,1.011,4.242c0,.135-.005.3-.014.505s-.025.379-.043.534H275.019v-2.4h10.938l-1.444.751a4.552,4.552,0,0,0-.533-2.323,4.039,4.039,0,0,0-1.545-1.587,4.563,4.563,0,0,0-2.309-.563,4.749,4.749,0,0,0-2.324.563,3.838,3.838,0,0,0-1.572,1.6,5.054,5.054,0,0,0-.549,2.4v.578a4.793,4.793,0,0,0,.621,2.453,4.223,4.223,0,0,0,1.775,1.659,5.8,5.8,0,0,0,2.684.593,6.031,6.031,0,0,0,2.339-.434,5.474,5.474,0,0,0,1.847-1.269l1.962,2.251a6.888,6.888,0,0,1-2.641,1.847A9.529,9.529,0,0,1,280.675,370.448Z" transform="translate(-198.97 -313.331)" fill="#fff"/>
      <path id="Path_49" data-name="Path 49" d="M294.18,370.448a8.91,8.91,0,0,1-4.314-1.024,7.607,7.607,0,0,1-2.958-2.8,8.366,8.366,0,0,1,0-8.182,7.632,7.632,0,0,1,2.958-2.785,8.912,8.912,0,0,1,4.314-1.025,8.277,8.277,0,0,1,3.954.924,5.95,5.95,0,0,1,2.6,2.684l-2.742,1.616a4.618,4.618,0,0,0-1.689-1.6,4.485,4.485,0,0,0-2.15-.534,4.851,4.851,0,0,0-2.4.592,4.244,4.244,0,0,0-1.675,1.673,5.159,5.159,0,0,0-.605,2.554,5.236,5.236,0,0,0,.605,2.568,4.213,4.213,0,0,0,1.675,1.688,4.852,4.852,0,0,0,2.4.593,4.484,4.484,0,0,0,2.15-.534,4.559,4.559,0,0,0,1.689-1.631l2.742,1.617a6.068,6.068,0,0,1-2.6,2.67A8.177,8.177,0,0,1,294.18,370.448Z" transform="translate(-194.696 -313.331)" fill="#fff"/>
      <path id="Path_50" data-name="Path 50" d="M306.636,370.448a8.57,8.57,0,0,1-4.2-1.024,7.634,7.634,0,0,1-2.929-2.814,7.838,7.838,0,0,1,2.915-10.953,8.546,8.546,0,0,1,4.214-1.025,8.7,8.7,0,0,1,4.258,1.025,7.59,7.59,0,0,1,2.914,2.785,8.467,8.467,0,0,1,0,8.182,7.538,7.538,0,0,1-2.93,2.8A8.713,8.713,0,0,1,306.636,370.448Zm0-3.058A4.693,4.693,0,0,0,309,366.8a4.147,4.147,0,0,0,1.63-1.7,5.354,5.354,0,0,0,.592-2.554,5.256,5.256,0,0,0-.592-2.554,4.2,4.2,0,0,0-1.63-1.673,4.914,4.914,0,0,0-4.676,0,4.3,4.3,0,0,0-1.645,1.673,5.146,5.146,0,0,0-.606,2.554,5.242,5.242,0,0,0,.606,2.554,4.24,4.24,0,0,0,1.645,1.7A4.579,4.579,0,0,0,306.636,367.389Z" transform="translate(-190.759 -313.331)" fill="#fff"/>
      <path id="Path_51" data-name="Path 51" d="M313.611,371.627V350.212h3.579v21.415Z" transform="translate(-186.018 -314.713)" fill="#fff"/>
      <path id="Path_52" data-name="Path 52" d="M327.172,371.843a8.573,8.573,0,0,1-4.2-1.024A7.629,7.629,0,0,1,320.044,368a7.838,7.838,0,0,1,2.915-10.953,8.54,8.54,0,0,1,4.213-1.025,8.692,8.692,0,0,1,4.258,1.025,7.6,7.6,0,0,1,2.915,2.785,8.477,8.477,0,0,1,0,8.182,7.55,7.55,0,0,1-2.931,2.8A8.7,8.7,0,0,1,327.172,371.843Zm0-3.058a4.69,4.69,0,0,0,2.366-.593,4.15,4.15,0,0,0,1.631-1.7,5.354,5.354,0,0,0,.592-2.554,5.256,5.256,0,0,0-.592-2.554,4.205,4.205,0,0,0-1.631-1.673,4.911,4.911,0,0,0-4.675,0,4.308,4.308,0,0,0-1.645,1.673,5.131,5.131,0,0,0-.606,2.554,5.226,5.226,0,0,0,.606,2.554,4.248,4.248,0,0,0,1.645,1.7A4.578,4.578,0,0,0,327.172,368.784Zm-2.452-14.662,3.894-3.955h4.272l-5.051,3.955Z" transform="translate(-184.341 -314.727)" fill="#fff"/>
      <path id="Path_53" data-name="Path 53" d="M340.951,369.552a8.32,8.32,0,0,1-3.982-.937A7.139,7.139,0,0,1,334.183,366a7.315,7.315,0,0,1-1.024-3.9,7.448,7.448,0,0,1,1.024-3.939,7,7,0,0,1,2.786-2.612,8.438,8.438,0,0,1,3.982-.924,7.746,7.746,0,0,1,3.536.794,5.846,5.846,0,0,1,2.5,2.439,8.6,8.6,0,0,1,.925,4.242,8.463,8.463,0,0,1-.925,4.186,5.933,5.933,0,0,1-2.5,2.453A7.635,7.635,0,0,1,340.951,369.552Zm.462,6.494a15.4,15.4,0,0,1-4.17-.562,8.982,8.982,0,0,1-3.335-1.66l1.617-2.684a7.972,7.972,0,0,0,2.54,1.357,9.835,9.835,0,0,0,3.174.518,5.09,5.09,0,0,0,3.7-1.168,4.777,4.777,0,0,0,1.183-3.536V365.57l.289-3.464-.116-3.492v-3.78h3.433v13.074q0,4.186-2.135,6.162A8.774,8.774,0,0,1,341.413,376.047Zm.087-9.552a5.114,5.114,0,0,0,2.423-.563,4.127,4.127,0,0,0,1.66-1.558,4.717,4.717,0,0,0,0-4.575,4.061,4.061,0,0,0-1.66-1.529,5.219,5.219,0,0,0-2.423-.549,5.313,5.313,0,0,0-2.44.549,4.04,4.04,0,0,0-1.673,1.529,4.726,4.726,0,0,0,0,4.575,4.1,4.1,0,0,0,1.673,1.558A5.206,5.206,0,0,0,341.5,366.494Z" transform="translate(-179.909 -313.331)" fill="#fff"/>
      <path id="Path_54" data-name="Path 54" d="M351.321,353.882a2.272,2.272,0,0,1-1.659-.635,2.091,2.091,0,0,1-.648-1.558,2.03,2.03,0,0,1,.648-1.5,2.276,2.276,0,0,1,1.659-.634,2.374,2.374,0,0,1,1.66.591,1.964,1.964,0,0,1,.648,1.516,2.168,2.168,0,0,1-.634,1.572A2.236,2.236,0,0,1,351.321,353.882Zm-1.789,17.951V356.421h3.579v15.411Z" transform="translate(-174.954 -314.919)" fill="#fff"/>
      <path id="Path_55" data-name="Path 55" d="M363.115,370.448a8.911,8.911,0,0,1-4.314-1.024,7.608,7.608,0,0,1-2.958-2.8,8.367,8.367,0,0,1,0-8.182,7.632,7.632,0,0,1,2.958-2.785,8.913,8.913,0,0,1,4.314-1.025,8.278,8.278,0,0,1,3.955.924,5.941,5.941,0,0,1,2.6,2.684l-2.742,1.616a4.6,4.6,0,0,0-1.688-1.6,4.484,4.484,0,0,0-2.15-.534,4.851,4.851,0,0,0-2.4.592,4.233,4.233,0,0,0-1.673,1.673,5.132,5.132,0,0,0-.606,2.554,5.208,5.208,0,0,0,.606,2.568,4.2,4.2,0,0,0,1.673,1.688,4.852,4.852,0,0,0,2.4.593,4.484,4.484,0,0,0,2.15-.534,4.546,4.546,0,0,0,1.688-1.631l2.742,1.617a6.059,6.059,0,0,1-2.6,2.67A8.178,8.178,0,0,1,363.115,370.448Z" transform="translate(-173.154 -313.331)" fill="#fff"/>
      <path id="Path_56" data-name="Path 56" d="M373.425,370.448a7.243,7.243,0,0,1-3.032-.592,4.679,4.679,0,0,1-2.005-1.645,4.165,4.165,0,0,1-.706-2.381,4.472,4.472,0,0,1,.619-2.337,4.184,4.184,0,0,1,2.034-1.646,9.7,9.7,0,0,1,3.752-.606h4.474v2.4h-4.214a3.769,3.769,0,0,0-2.467.591,1.929,1.929,0,0,0-.65,1.487,1.812,1.812,0,0,0,.778,1.529,3.574,3.574,0,0,0,2.166.578,4.686,4.686,0,0,0,2.381-.606,3.563,3.563,0,0,0,1.543-1.789l.579,2.164a4.026,4.026,0,0,1-1.848,2.107A6.855,6.855,0,0,1,373.425,370.448Zm4.847-.2V367.1l-.173-.634v-5.455a3.168,3.168,0,0,0-.966-2.467,4.235,4.235,0,0,0-2.929-.881,8.068,8.068,0,0,0-2.511.4,6.631,6.631,0,0,0-2.137,1.125l-1.414-2.626a9.115,9.115,0,0,1,2.973-1.442,12.767,12.767,0,0,1,3.55-.491,7.563,7.563,0,0,1,5.195,1.617,6.3,6.3,0,0,1,1.818,4.963v9.034Z" transform="translate(-169.12 -313.331)" fill="#fff"/>
      <path id="Path_57" data-name="Path 57" d="M387.075,370.448a13.405,13.405,0,0,1-3.722-.505,9.995,9.995,0,0,1-2.83-1.226l1.386-2.742a9.5,9.5,0,0,0,2.482,1.083,10.442,10.442,0,0,0,2.914.417,5.042,5.042,0,0,0,2.44-.446,1.37,1.37,0,0,0,.765-1.227,1.078,1.078,0,0,0-.521-.967,4.047,4.047,0,0,0-1.356-.505q-.837-.171-1.861-.316c-.682-.1-1.366-.227-2.049-.39a7.053,7.053,0,0,1-1.861-.722,3.856,3.856,0,0,1-1.357-1.284,3.962,3.962,0,0,1-.52-2.166,4.012,4.012,0,0,1,.838-2.525,5.438,5.438,0,0,1,2.352-1.688,9.647,9.647,0,0,1,3.594-.606,14.254,14.254,0,0,1,3.132.361,9.186,9.186,0,0,1,2.67.995l-1.415,2.742a7.33,7.33,0,0,0-2.193-.879,10.384,10.384,0,0,0-2.222-.246,4.873,4.873,0,0,0-2.424.477,1.4,1.4,0,0,0-.809,1.226,1.163,1.163,0,0,0,.52,1.04,4.021,4.021,0,0,0,1.356.534q.837.187,1.861.347t2.036.4a8.136,8.136,0,0,1,1.861.693,3.61,3.61,0,0,1,1.372,1.256,3.839,3.839,0,0,1,.518,2.107,3.893,3.893,0,0,1-.851,2.525,5.545,5.545,0,0,1-2.4,1.645A10.369,10.369,0,0,1,387.075,370.448Z" transform="translate(-165.108 -313.331)" fill="#fff"/>
    </g>
    <g id="Group_63" data-name="Group 63" transform="translate(63.836 263.281)">
      <path id="Path_59" data-name="Path 59" d="M127.254,298.633s-15.732,25.036,10.1,32.437c12.251,3.51,18.577.483,29.073,2.758,9.833,2.132,16.918,3.928,23.72,14.342l3.754,7.1-2.582-27.1L154.776,306.8Z" transform="translate(-45.5 -252.233)" fill="#fff"/>
      <path id="Union_1" data-name="Union 1" d="M-2509.7-4.519c-25.338-19.565-39.385-52.836-35.725-84.646a94.6,94.6,0,0,1,23.095-51.142,91.546,91.546,0,0,1,20.052-17.051v-.008c22.229-14,50.09-18.52,75.831-11.1,20.463,5.906,39.657,20.255,45.91,40.616,6.168,20.068-1.346,42.467-14.7,58.643a1.759,1.759,0,0,1-1.6.665c-.906-.147-1.114-1.014-1.285-1.773a29.492,29.492,0,0,0-15.951-19.936c-11.749-5.542-25.649-2.695-38.395-5.2a23.406,23.406,0,0,1-10.5-4.459c-7.879-6.5-7.128-19.991.085-27.219s18.807-8.676,28.6-5.79,18.086,9.45,25.439,16.539c-7.1-14.512-23.737-22.645-39.889-23.149-23.4-.735-46.638,13.544-56.428,34.813-7.994,17.367-6.6,38.55,2.886,55.042,0,0-19.673-20.879-19.654-52.813-.019,31.934,19.654,52.813,19.654,52.813a56.285,56.285,0,0,0,7.631,10.332c9.853,10.518,23.984,16.8,38.233,18.242A54.826,54.826,0,0,0-2433.1-23.48c7.259-2.515,14.093-7.244,19.72-12.422,5.782-5.317,11.586-9.868,19.983-9.3,7.833.535,15.333,6.524,16.385,14.295a15.661,15.661,0,0,1,.1,3.181c-.409,5.811-3.931,11.291-8.056,15.587-7.817,8.15-17.909,13.583-28.142,18.1a99.116,99.116,0,0,1-39.949,8.429A92.406,92.406,0,0,1-2509.7-4.519Z" transform="translate(2546 172)" fill="#fff" stroke="rgba(0,0,0,0)" stroke-miterlimit="10" stroke-width="1"/>
      <g id="Group_62" data-name="Group 62" transform="translate(56.415 50.975)">
        <path id="Path_61" data-name="Path 61" d="M114.141,302.548c.268-.255.461-.429.461-.429C114.511,302.114,114.347,302.277,114.141,302.548Z" transform="translate(-104.531 -302.119)" fill="#fff"/>
        <path id="Path_62" data-name="Path 62" d="M187.989,368.638s-10.427-14.523-33.794-17.039l-.36-.037c-7.275-.74-10.356-.721-11.148-.34a153.6,153.6,0,0,1-15.241-4.876,25.64,25.64,0,0,1-16.686-26.539c.925-8.387,4.33-15.6,5.669-17.362-2.748,2.608-17.568,18.13-3.91,38.119,6.729,9.849,19.114,12.97,27.53,13.944,15.485,1.793,18.046-.016,33.1,5.615C179.756,362.6,185.913,366,187.989,368.638Z" transform="translate(-106.819 -302.017)" fill="#fff"/>
      </g>
      <path id="Path_63" data-name="Path 63" d="M116.441,302.119c-4.758,8.783-7.636,19.278-3.554,28.094,3.674,8.917,11.939,14.947,21.455,16.708,9.472,2.058,19.913,2.626,29.806,5.633a43.371,43.371,0,0,1,24.64,17.509,47.245,47.245,0,0,0-11.561-9.512,52.878,52.878,0,0,0-13.807-5.289,105.264,105.264,0,0,0-14.776-2.177,111.005,111.005,0,0,1-15.268-1.9,34.15,34.15,0,0,1-14.536-6.636,28.665,28.665,0,0,1-9.13-13.143,26.109,26.109,0,0,1-.449-15.737A39.844,39.844,0,0,1,116.441,302.119Z" transform="translate(-49.955 -251.144)" fill="#fff"/>
      <path id="Path_64" data-name="Path 64" d="M78.119,373.39s19.635,40.076,63.322,45.5,81.229-24.67,81.229-24.67-24.212,33.5-80.75,27.982-73.728-63.66-73.728-63.66Z" transform="translate(-62.475 -233.511)" fill="#fff"/>
    </g>
  </g>
</svg>
