<svg xmlns="http://www.w3.org/2000/svg" xmlns:xlink="http://www.w3.org/1999/xlink" width="92.569" height="114.027" viewBox="0 0 92.569 114.027">
  <defs>
    <filter id="Trazado_233" x="0" y="0" width="92.569" height="114.027" filterUnits="userSpaceOnUse">
      <feOffset dx="6" dy="6" input="SourceAlpha"/>
      <feGaussianBlur stdDeviation="6" result="blur"/>
      <feFlood flood-opacity="0.161"/>
      <feComposite operator="in" in2="blur"/>
      <feComposite in="SourceGraphic"/>
    </filter>
  </defs>
  <g id="Grupo_2265" data-name="Grupo 2265" transform="translate(-5179.174 -8994.894)">
    <g id="Grupo_2264" data-name="Grupo 2264">
      <g transform="matrix(1, 0, 0, 1, 5179.17, 8994.89)" filter="url(#Trazado_233)">
        <path id="Trazado_233-2" data-name="Trazado 233" d="M3768.77,800.9c-6.044-8.654-11.979-17.417-18.234-25.923-5.379-7.319-10.216-15.286-10.1-24.7a27.832,27.832,0,0,1,9.043-19.88,28.43,28.43,0,0,1,45.423,9.772c4.377,10.38,1.5,21.565-4.8,30.44q-10.718,15.115-21.334,30.292" transform="translate(-3728.43 -710.87)" fill="#f50101"/>
      </g>
      <g id="Grupo_2263" data-name="Grupo 2263" transform="translate(-87.453 -2.889)">
        <path id="Trazado_234" data-name="Trazado 234" d="M1214.94,2017.22a.929.929,0,0,0-.036-.177.892.892,0,0,0-.063-.149.88.88,0,0,0-.219-.261c-.023-.018-.037-.045-.062-.061l-2.61-1.709a5,5,0,0,0-.613-9.952c-.124,0-.246.014-.368.023a5,5,0,0,0-9.468,0,4.782,4.782,0,0,0-.482-.026,5.02,5.02,0,0,0-4.852,3.819h-4.787a1.957,1.957,0,0,0-1.338.308l-11.212,7.284a.876.876,0,1,0,.954,1.469l1.986-1.291v10.021a2.623,2.623,0,0,0,2.537,2.7h24.871a2.623,2.623,0,0,0,2.538-2.7v-8.339h2.362a.891.891,0,0,0,.308-.063.567.567,0,0,0,.054-.021.869.869,0,0,0,.244-.165c.013-.012.022-.027.035-.04a.852.852,0,0,0,.092-.109.672.672,0,0,0,.028-.071.852.852,0,0,0,.065-.161.844.844,0,0,0,.035-.174c0-.026.015-.048.015-.073S1214.94,2017.25,1214.94,2017.22Zm-11.442-.792-9.081-5.948h7.617a.28.28,0,0,1,.073.028l9.039,5.92Zm-2.479-9.767a3.246,3.246,0,0,1,2.458,1.126.876.876,0,1,0,1.326-1.145,4.979,4.979,0,0,0-1.606-1.229,3.242,3.242,0,0,1,6.244.6l.041.552a3.24,3.24,0,0,1-.144.931.876.876,0,0,0,.578,1.1.907.907,0,0,0,.259.039.877.877,0,0,0,.837-.618,5,5,0,0,0,.212-1.345c.037,0,.075-.007.114-.007a3.246,3.246,0,1,1,0,6.492h-1.773a.851.851,0,0,0-.172.034l-6.328-4.144a2.012,2.012,0,0,0-.83-.312.824.824,0,0,0-.09.007c-.015,0-.026-.008-.041-.008h-4.094a3.253,3.253,0,0,1,3.01-2.074Zm-12.141,20.8v-6.712a1.9,1.9,0,1,1,3.8,0v6.712Zm8.031,0h-2.475v-6.712a3.654,3.654,0,0,0-7.308,0v6.712h-2.817a.878.878,0,0,1-.786-.946v-11.072c0-.027-.013-.05-.015-.077l7.49-4.866a.238.238,0,0,1,.055-.025h.153a.315.315,0,0,1,.056.028l7.86,5.148v10.863a.879.879,0,0,1-.786.946Zm13.056-.946a.878.878,0,0,1-.786.946H1200.7a2.809,2.809,0,0,0,.17-.946V2016.8l1.883,1.233a.873.873,0,0,0,.48.144h6.729Z" transform="translate(4107.398 7020.907)" fill="#f0f9ec"/>
        <circle id="Elipse_30" data-name="Elipse 30" cx="7.5" cy="7.5" r="7.5" transform="translate(5309.453 9041.889)" fill="#f0f9ec"/>
        <g id="Grupo_2262" data-name="Grupo 2262" transform="translate(5312.613 9044.366)">
          <g id="Grupo_2135" data-name="Grupo 2135">
            <g id="Grupo_2131" data-name="Grupo 2131">
              <path id="Trazado_188" data-name="Trazado 188" d="M2654.93,2175.78a1.072,1.072,0,0,1-.6-.187l-1.88-1.275a.1.1,0,0,0-.114,0l-1.88,1.275a1.063,1.063,0,0,1-1.229-.018,1.085,1.085,0,0,1-.412-1.184l.665-2.366-1.158-1.178a1.091,1.091,0,0,1,.778-1.857h1.778l.513-1.3a1.077,1.077,0,0,1,2,0h0l.513,1.3h1.79a1.087,1.087,0,0,1,.774,1.849l-1.167,1.186.665,2.366a1.084,1.084,0,0,1-.412,1.184,1.067,1.067,0,0,1-.625.2Zm-2.54-2.456a1.073,1.073,0,0,1,.6.187c1.9,1.286,1.937,1.313,1.991,1.273.03-.022.062-.062-.7-2.767-.048-.168,0-.349,1.486-1.862.034-.035-.03-.189-.079-.189-2.323,0-2.5-.123-2.576-.309-.641-1.63-.66-1.679-.73-1.679s-.088.049-.729,1.679a.488.488,0,0,1-.454.309h-2.11a.106.106,0,0,0-.106.071.108.108,0,0,0,.024.127l1.356,1.379a.488.488,0,0,1,.122.474l-.741,2.638a.112.112,0,0,0,.043.129.088.088,0,0,0,.112,0l1.88-1.275a1.075,1.075,0,0,1,.611-.189Z" transform="translate(-2648.006 -2167)" fill="#f5a301"/>
            </g>
          </g>
          <g id="Grupo_2257" data-name="Grupo 2257" transform="translate(0.266 0.371)">
            <g id="Grupo_2144" data-name="Grupo 2144">
              <path id="Trazado_201" data-name="Trazado 201" d="M2654.09,2174.71a.945.945,0,0,1-.529-.164l-1.651-1.121a.088.088,0,0,0-.1,0l-1.651,1.12a.934.934,0,0,1-1.08-.016.951.951,0,0,1-.361-1.04l.583-2.078-1.018-1.034a.959.959,0,0,1,.683-1.631h1.562l.45-1.146a.946.946,0,0,1,1.761,0h0l.45,1.146h1.572a.955.955,0,0,1,.68,1.624l-1.025,1.042.583,2.078a.95.95,0,0,1-.362,1.04.939.939,0,0,1-.547.179Z" transform="translate(-2648.006 -2167)" fill="#f5a301"/>
            </g>
          </g>
        </g>
      </g>
    </g>
  </g>
</svg>
